<svg xmlns="http://www.w3.org/2000/svg" version="1.1" xmlns:xlink="http://www.w3.org/1999/xlink" xmlns:svgjs="http://svgjs.dev/svgjs" width="2000" height="1000" preserveAspectRatio="none" viewBox="0 0 2000 1000"><g mask="url(&quot;#SvgjsMask1011&quot;)" fill="none"><rect width="2000" height="1000" x="0" y="0" fill="rgba(222, 148, 16, 1)"></rect><path d="M1480.429,1144.424C1582.329,1142.104,1690.141,1116.195,1740.766,1027.73C1791.139,939.706,1758.493,833.986,1708.613,745.682C1657.672,655.499,1583.959,569.92,1480.429,566.847C1372.676,563.649,1282.656,638.774,1227.513,731.403C1170.858,826.572,1140.874,945.619,1198.713,1040.073C1254.763,1131.605,1373.127,1146.868,1480.429,1144.424" fill="rgba(28, 83, 142, 0.4)" class="triangle-float2"></path><path d="M286.8229997422188 1034.5160971437335L319.3173282262515 769.8710290253696 54.672260107887496 737.3767005413368 22.177931623854818 1002.0217686597009z" fill="rgba(28, 83, 142, 0.4)" class="triangle-float1"></path><path d="M673.5911812776586 633.899737861984L808.2261045338506 702.4996576517432 876.8260243236098 567.8647343955511 742.1911010674178 499.264814605792z" fill="rgba(28, 83, 142, 0.4)" class="triangle-float3"></path><path d="M392.243869864045 813.3950707415145L251.67905997711338 975.0963872024681 413.38037643806695 1115.6611970893996 553.9451863249985 953.9598806284461z" fill="rgba(28, 83, 142, 0.4)" class="triangle-float1"></path><path d="M1591.5301133224307 1064.6712488532335L1560.249689884915 809.9126439643701 1305.4910849960515 841.1930674018859 1336.7715084335673 1095.9516722907492z" fill="rgba(28, 83, 142, 0.4)" class="triangle-float3"></path><path d="M904.261,872.967C997.067,878.377,1106.705,881.6,1154.58,801.911C1203.185,721.007,1151.334,623.704,1102.555,542.904C1056.011,465.806,994.179,392.297,904.261,387.269C806.456,381.8,709.081,431.676,663.436,518.349C620.216,600.418,647.747,698.671,699.857,775.403C745.318,842.345,823.479,868.258,904.261,872.967" fill="rgba(28, 83, 142, 0.4)" class="triangle-float1"></path><path d="M1065.0358716434278 392.64673929156135L1067.765882194206 549.0489389972004 1224.168081899845 546.3189284464223 1221.4380713490668 389.91672874078324z" fill="rgba(28, 83, 142, 0.4)" class="triangle-float3"></path><path d="M1938.577,376.579C1984.809,378.979,2024.708,348.027,2048.846,308.524C2074.216,267.005,2087.433,215.101,2062.935,173.061C2038.565,131.241,1986.976,118.673,1938.577,119.298C1891.483,119.906,1841.232,134.337,1819.662,176.205C1799.253,215.821,1823.759,259.696,1846.502,298.019C1868.571,335.206,1895.393,374.337,1938.577,376.579" fill="rgba(28, 83, 142, 0.4)" class="triangle-float1"></path></g><defs><mask id="SvgjsMask1011"><rect width="2000" height="1000" fill="#ffffff"></rect></mask><style>
                @keyframes float1 {
                    0%{transform: translate(0, 0)}
                    50%{transform: translate(-10px, 0)}
                    100%{transform: translate(0, 0)}
                }

                .triangle-float1 {
                    animation: float1 5s infinite;
                }

                @keyframes float2 {
                    0%{transform: translate(0, 0)}
                    50%{transform: translate(-5px, -5px)}
                    100%{transform: translate(0, 0)}
                }

                .triangle-float2 {
                    animation: float2 4s infinite;
                }

                @keyframes float3 {
                    0%{transform: translate(0, 0)}
                    50%{transform: translate(0, -10px)}
                    100%{transform: translate(0, 0)}
                }

                .triangle-float3 {
                    animation: float3 6s infinite;
                }
            </style></defs></svg>