    <svg width="300" height="50" viewBox="0 0 452 67" fill="none" xmlns="http://www.w3.org/2000/svg" class="w-full">
        <path d="M408.678 -3.05176e-05C416.118 -3.05176e-05 423.818 0.236618 431.45 0.86393C441.543 1.69331 449.344 5.84924 450.862 11.2066C452.444 16.7828 446.643 22.3826 437.072 24.5218C432.731 25.4919 427.807 25.6934 423.205 25.0896C407.706 23.1347 391.14 23.2206 376.978 23.5629C361.831 23.9286 345.805 24.6245 331.236 27.2173C305.401 31.8149 282.193 39.3436 256.696 47.9868C245.659 51.7286 233.682 55.5655 220.898 58.284C204.823 61.7018 187.543 64.1093 169.537 65.4393C159.899 66.151 149.582 66.6209 137.998 66.8757C132.992 66.9857 126.762 67.1225 120.725 66.7947C114.806 66.4731 108.599 65.8827 101.188 64.9367C93.4354 63.947 85.5778 62.7005 77.8335 61.2309C69.1099 59.576 59.0596 57.5448 50.1707 54.3751C40.9363 51.0826 33.2237 47.8851 26.5933 44.6002C18.6064 40.6429 12.0876 36.4724 7.21896 32.2041C4.43652 29.7649 2.12347 27.1746 0.343262 24.504C-0.196533 23.6943 0.529572 22.7959 1.98892 22.4681C3.4483 22.1398 5.12219 22.4982 5.78415 23.2806C15.9294 35.2782 37.5912 43.0541 55.3295 48.4883C64.8461 51.4036 76.0664 52.9909 85.8353 54.2499C93.6561 55.2573 101.384 56.0223 108.803 56.5234C117.113 57.0844 123.981 57.1704 130.416 56.7931C136.953 56.4101 145.566 55.8586 154.217 54.9875C172.577 53.1387 188.119 50.6966 201.729 47.5217C213.241 44.8358 224.804 41.0858 238.12 35.7193L238.95 35.3848C254.698 29.0377 270.983 22.4747 288.243 16.9412C300.031 13.162 310.597 10.2721 320.542 8.10698C340.35 3.79403 361.938 2.07248 378.533 1.05399C387.303 0.514992 397.706 -3.05176e-05 408.678 -3.05176e-05ZM428.522 22.2166C430.69 22.2166 432.85 21.9909 434.842 21.5455C441.922 19.9631 446.213 15.8215 445.043 11.6982C443.92 7.73797 438.106 4.66191 430.575 4.04276C412.368 2.54719 393.55 3.36695 379.191 4.24817C362.963 5.24409 341.88 6.92205 322.724 11.0925C313.058 13.1971 302.755 16.0169 291.226 19.7131C274.232 25.1611 258.075 31.6733 242.449 37.9709L241.619 38.3055C227.927 43.8236 215.987 47.6911 204.044 50.4773C190.029 53.7468 174.081 56.2566 155.286 58.1486C146.441 59.0394 137.685 59.6 131.045 59.9893C124.148 60.3934 116.85 60.3061 108.079 59.7138C100.449 59.1988 92.5097 58.4131 84.4824 57.3788C74.3222 56.0699 62.6306 54.412 52.4467 51.2923C52.125 51.1934 51.7997 51.0935 51.4753 50.9937C52.1065 51.2231 52.7456 51.4535 53.3909 51.6834C61.7216 54.6539 71.3736 56.6017 79.7667 58.1937C87.3176 59.6264 94.9757 60.8417 102.528 61.8054C109.684 62.7188 115.65 63.2871 121.307 63.5947C126.522 63.8779 131.628 63.7972 137.761 63.6628C149.158 63.4123 159.295 62.951 168.747 62.2527C186.293 60.9568 203.119 58.6136 218.761 55.2875C231.1 52.664 242.793 48.9151 253.59 45.2549C279.418 36.4994 302.95 28.8688 329.412 24.1599C344.651 21.4481 361.155 20.7262 376.719 20.3504C391.282 19.9986 408.351 19.9146 424.544 21.9583C424.553 21.9593 424.562 21.9608 424.571 21.9617C425.866 22.1321 427.195 22.2166 428.522 22.2166Z" fill="#008DA8"></path>
    </svg>